<svg xmlns="http://www.w3.org/2000/svg" viewBox="305 266 232 62">
  <g fill="white">
    <path d="M 342.543,296.733 C 341.773,295.413 340.347,294.515 338.306,294.060 L 326.286,291.380 C 325.366,291.174 324.873,290.951 324.690,290.651 C 324.582,290.475 324.568,290.256 324.639,289.981 L 325.202,288.433 L 343.751,288.433 L 346.474,280.101 L 326.389,280.101 C 323.025,280.101 320.691,280.520 319.039,281.418 C 317.063,282.493 315.741,284.196 315.001,286.623 L 313.916,290.001 C 313.335,291.894 313.553,293.928 314.512,295.583 C 315.452,297.207 316.988,298.300 318.954,298.750 L 330.448,301.316 C 331.104,301.454 331.534,301.674 331.720,301.968 C 331.833,302.148 331.860,302.357 331.804,302.594 L 331.232,304.324 L 311.779,304.324 L 309.096,312.644 L 329.053,312.644 C 333.593,312.644 335.970,312.407 338.045,311.013 C 340.190,309.570 341.036,307.251 341.852,304.591 L 342.820,301.332 C 343.358,299.560 343.263,297.970 342.543,296.733"/>
    <path d="M 431.491,308.238 L 422.873,308.238 L 425.129,302.328 C 425.590,301.109 426.005,300.676 427.422,300.676 L 433.874,300.676 Z M 444.585,294.278 C 443.654,293.008 442.004,292.364 439.679,292.364 L 425.593,292.364 C 420.648,292.364 417.483,294.336 415.912,298.389 L 405.571,324.912 L 416.479,324.912 L 419.764,316.377 L 428.835,316.377 L 426.095,324.912 L 436.786,324.912 L 444.975,299.403 C 445.637,297.302 445.503,295.531 444.585,294.278"/>
    <path d="M 496.081,300.704 L 511.493,300.704 L 514.236,292.364 L 493.564,292.364 C 488.765,292.364 486.125,294.084 484.741,298.122 L 478.321,318.194 C 477.711,320.017 477.865,321.702 478.752,322.936 C 479.675,324.221 481.292,324.898 483.423,324.898 L 497.669,324.898 C 501.068,324.898 502.496,324.691 504.035,323.972 C 505.894,323.101 506.951,321.728 507.807,319.069 L 510.940,309.281 C 511.402,307.856 511.332,306.715 510.730,305.887 C 510.113,305.040 508.978,304.592 507.445,304.592 L 497.313,304.592 L 494.736,312.629 L 499.179,312.629 L 498.179,315.769 C 497.947,316.428 497.745,316.552 496.909,316.552 L 489.538,316.550 L 494.242,301.913 C 494.576,300.886 495.101,300.704 496.081,300.704"/>
    <path d="M 471.208,292.364 L 466.080,308.349 L 462.041,294.403 C 461.668,293.069 460.647,292.364 459.092,292.364 L 452.015,292.364 L 441.671,324.616 L 441.579,324.898 L 452.266,324.898 L 457.325,309.137 L 461.461,322.952 C 461.683,323.682 462.344,324.898 464.265,324.898 L 471.459,324.898 L 481.894,292.364 Z"/>
    <path d="M 394.498,315.377 C 394.118,316.492 393.539,316.548 392.628,316.548 L 384.807,316.548 L 386.061,312.635 L 395.383,312.635 Z M 410.374,294.063 C 409.572,292.967 408.042,292.364 406.066,292.364 L 360.293,292.364 L 361.277,289.274 C 361.525,288.470 362.077,288.433 363.034,288.433 L 378.633,288.433 L 381.304,280.101 L 362.808,280.101 C 359.447,280.101 357.109,280.520 355.459,281.419 C 353.482,282.493 352.162,284.196 351.420,286.623 L 343.068,312.635 L 371.021,312.635 L 373.695,304.325 L 356.478,304.325 L 357.733,300.395 L 399.311,300.395 L 398.301,303.529 C 398.131,304.044 397.883,304.325 397.076,304.325 L 378.037,304.331 L 371.438,324.912 L 392.888,324.912 C 397.052,324.912 398.955,324.618 400.718,323.700 C 402.213,322.923 403.200,321.564 403.914,319.284 L 405.486,314.372 C 405.990,312.867 406.367,311.153 405.323,309.881 L 404.192,308.613 L 405.968,307.379 C 407.853,306.175 408.382,305.462 409.108,303.143 L 410.706,298.140 C 411.230,296.484 411.116,295.075 410.374,294.063"/>
    <path d="M 398.395,279.655 L 392.285,279.655 L 395.340,270.253 L 397.207,270.253 L 394.685,278.014 L 398.928,278.014 Z"/>
    <path d="M 403.055,278.230 C 403.372,278.230 403.634,278.155 403.841,278.004 C 404.049,277.853 404.214,277.589 404.336,277.212 L 404.851,275.628 C 404.974,275.251 404.980,274.987 404.871,274.836 C 404.761,274.685 404.548,274.610 404.231,274.610 L 403.304,274.610 C 402.987,274.610 402.725,274.685 402.518,274.836 C 402.310,274.987 402.145,275.251 402.022,275.628 L 401.508,277.212 C 401.385,277.589 401.379,277.853 401.488,278.004 C 401.598,278.155 401.810,278.230 402.127,278.230 Z M 406.011,277.280 C 405.744,278.102 405.339,278.711 404.795,279.107 C 404.252,279.503 403.546,279.701 402.679,279.701 L 401.548,279.701 C 400.680,279.701 400.103,279.503 399.817,279.107 C 399.531,278.711 399.522,278.102 399.789,277.280 L 400.347,275.560 C 400.614,274.738 401.020,274.129 401.563,273.733 C 402.107,273.337 402.812,273.139 403.680,273.139 L 404.811,273.139 C 405.678,273.139 406.255,273.337 406.542,273.733 C 406.828,274.129 406.837,274.738 406.570,275.560 Z"/>
    <path d="M 411.002,278.184 L 411.984,275.163 C 412.094,274.824 411.979,274.654 411.640,274.654 L 410.056,274.654 C 409.716,274.654 409.492,274.824 409.381,275.163 L 408.565,277.675 C 408.455,278.014 408.569,278.184 408.909,278.184 Z M 411.798,280.956 C 411.652,281.408 411.453,281.729 411.203,281.918 C 410.953,282.106 410.602,282.200 410.150,282.200 L 405.963,282.200 L 406.441,280.730 L 409.835,280.730 C 409.979,280.730 410.078,280.709 410.133,280.667 C 410.188,280.626 410.239,280.533 410.285,280.390 L 410.524,279.655 L 408.092,279.655 C 407.413,279.655 406.975,279.523 406.777,279.259 C 406.581,278.995 406.574,278.580 406.758,278.014 L 407.794,274.824 C 407.978,274.258 408.254,273.843 408.623,273.579 C 408.992,273.315 409.515,273.183 410.194,273.183 L 412.457,273.183 C 413.136,273.183 413.574,273.315 413.771,273.579 C 413.968,273.843 413.975,274.258 413.791,274.824 Z"/>
    <path d="M 417.798,271.724 C 417.752,271.867 417.701,271.960 417.646,272.001 C 417.591,272.043 417.492,272.063 417.348,272.063 L 416.216,272.063 C 416.074,272.063 415.988,272.043 415.959,272.001 C 415.932,271.960 415.940,271.867 415.988,271.724 L 416.356,270.592 C 416.401,270.449 416.452,270.357 416.507,270.315 C 416.562,270.274 416.661,270.253 416.805,270.253 L 417.937,270.253 C 418.079,270.253 418.165,270.274 418.194,270.315 C 418.221,270.357 418.212,270.449 418.166,270.592 Z M 415.163,279.655 L 413.466,279.655 L 415.570,273.183 L 417.267,273.183 Z"/>
    <path d="M 422.600,278.015 C 422.426,278.551 422.152,278.958 421.778,279.237 C 421.405,279.516 420.879,279.656 420.200,279.656 L 416.297,279.656 L 416.774,278.185 L 420.395,278.185 C 420.568,278.185 420.697,278.155 420.781,278.094 C 420.864,278.034 420.930,277.932 420.976,277.789 C 421.013,277.676 421.011,277.583 420.970,277.511 C 420.929,277.440 420.829,277.382 420.671,277.336 L 418.217,276.567 C 418.033,276.507 417.889,276.425 417.787,276.324 C 417.684,276.222 417.615,276.107 417.582,275.978 C 417.548,275.850 417.541,275.709 417.561,275.554 C 417.581,275.400 417.620,275.236 417.676,275.062 L 417.753,274.825 C 417.927,274.289 418.201,273.882 418.574,273.603 C 418.948,273.324 419.474,273.184 420.153,273.184 L 423.830,273.184 L 423.352,274.655 L 419.958,274.655 C 419.785,274.655 419.658,274.677 419.579,274.723 C 419.501,274.768 419.442,274.851 419.402,274.972 C 419.373,275.062 419.381,275.136 419.427,275.192 C 419.472,275.249 419.575,275.300 419.734,275.345 L 422.188,276.114 C 422.372,276.175 422.515,276.256 422.618,276.357 C 422.721,276.459 422.789,276.574 422.823,276.703 C 422.856,276.831 422.863,276.974 422.841,277.133 C 422.820,277.291 422.782,277.453 422.729,277.619 Z"/>
    <path d="M 427.194,279.655 L 426.289,279.655 C 425.421,279.655 424.845,279.457 424.559,279.061 C 424.272,278.665 424.263,278.056 424.530,277.234 L 425.368,274.654 L 424.180,274.654 L 424.658,273.183 L 425.846,273.183 L 426.431,271.384 L 428.128,271.384 L 427.543,273.183 L 429.297,273.183 L 428.819,274.654 L 427.065,274.654 L 426.249,277.166 C 426.126,277.543 426.120,277.807 426.229,277.958 C 426.339,278.109 426.552,278.184 426.869,278.184 L 427.672,278.184 Z"/>
    <path d="M 432.544,271.724 C 432.497,271.867 432.447,271.960 432.392,272.001 C 432.337,272.043 432.238,272.063 432.094,272.063 L 430.963,272.063 C 430.820,272.063 430.734,272.043 430.706,272.001 C 430.678,271.960 430.687,271.867 430.734,271.724 L 431.102,270.592 C 431.148,270.449 431.199,270.357 431.254,270.315 C 431.308,270.274 431.408,270.253 431.551,270.253 L 432.682,270.253 C 432.826,270.253 432.911,270.274 432.939,270.315 C 432.967,270.357 432.958,270.449 432.912,270.592 Z M 429.910,279.655 L 428.213,279.655 L 430.316,273.183 L 432.013,273.183 Z"/>
    <path d="M 436.009,279.655 L 433.282,279.655 C 432.415,279.655 431.838,279.457 431.552,279.061 C 431.266,278.665 431.256,278.056 431.523,277.234 L 432.053,275.605 C 432.320,274.783 432.725,274.173 433.269,273.777 C 433.812,273.381 434.518,273.183 435.385,273.183 L 438.112,273.183 L 437.634,274.654 L 435.009,274.654 C 434.692,274.654 434.430,274.730 434.223,274.880 C 434.015,275.031 433.850,275.295 433.728,275.672 L 433.242,277.166 C 433.120,277.543 433.113,277.807 433.223,277.958 C 433.332,278.109 433.545,278.184 433.862,278.184 L 436.487,278.184 Z"/>
    <path d="M 443.217,278.015 C 443.043,278.551 442.769,278.958 442.395,279.237 C 442.022,279.516 441.496,279.656 440.817,279.656 L 436.914,279.656 L 437.391,278.185 L 441.012,278.185 C 441.186,278.185 441.314,278.155 441.398,278.094 C 441.482,278.034 441.547,277.932 441.593,277.789 C 441.630,277.676 441.628,277.583 441.587,277.511 C 441.546,277.440 441.447,277.382 441.288,277.336 L 438.834,276.567 C 438.650,276.507 438.506,276.425 438.404,276.324 C 438.301,276.222 438.232,276.107 438.199,275.978 C 438.165,275.850 438.158,275.709 438.178,275.554 C 438.198,275.400 438.237,275.236 438.293,275.062 L 438.370,274.825 C 438.544,274.289 438.818,273.882 439.191,273.603 C 439.565,273.324 440.091,273.184 440.770,273.184 L 444.447,273.184 L 443.969,274.655 L 440.575,274.655 C 440.402,274.655 440.275,274.677 440.197,274.723 C 440.118,274.768 440.059,274.851 440.020,274.972 C 439.990,275.062 439.998,275.136 440.044,275.192 C 440.089,275.249 440.192,275.300 440.351,275.345 L 442.805,276.114 C 442.989,276.175 443.132,276.256 443.235,276.357 C 443.338,276.459 443.406,276.574 443.440,276.703 C 443.473,276.831 443.480,276.974 443.458,277.133 C 443.437,277.291 443.400,277.453 443.346,277.619 Z"/>
    <path d="M 448.850,279.655 L 446.983,279.655 L 449.487,271.950 C 449.854,270.819 450.604,270.253 451.735,270.253 L 456.148,270.253 L 455.615,271.893 L 451.824,271.893 C 451.651,271.893 451.522,271.926 451.437,271.990 C 451.352,272.054 451.281,272.173 451.225,272.346 L 450.721,273.896 L 454.511,273.896 L 453.986,275.514 L 450.195,275.514 Z"/>
    <path d="M 458.036,278.230 C 458.353,278.230 458.615,278.155 458.822,278.004 C 459.030,277.853 459.195,277.589 459.317,277.212 L 459.832,275.628 C 459.955,275.251 459.961,274.987 459.852,274.836 C 459.742,274.685 459.529,274.610 459.212,274.610 L 458.285,274.610 C 457.968,274.610 457.706,274.685 457.499,274.836 C 457.291,274.987 457.126,275.251 457.003,275.628 L 456.489,277.212 C 456.366,277.589 456.360,277.853 456.469,278.004 C 456.579,278.155 456.791,278.230 457.108,278.230 Z M 460.992,277.280 C 460.725,278.102 460.320,278.711 459.776,279.107 C 459.233,279.503 458.527,279.701 457.660,279.701 L 456.529,279.701 C 455.661,279.701 455.084,279.503 454.798,279.107 C 454.512,278.711 454.503,278.102 454.770,277.280 L 455.329,275.560 C 455.595,274.738 456.001,274.129 456.544,273.733 C 457.088,273.337 457.793,273.139 458.661,273.139 L 459.792,273.139 C 460.660,273.139 461.236,273.337 461.523,273.733 C 461.809,274.129 461.818,274.738 461.551,275.560 Z"/>
    <path d="M 462.993,279.655 L 461.296,279.655 L 462.612,275.605 C 462.879,274.783 463.285,274.173 463.828,273.777 C 464.371,273.381 465.077,273.183 465.944,273.183 L 466.849,273.183 L 466.372,274.654 L 465.568,274.654 C 465.252,274.654 464.989,274.730 464.782,274.880 C 464.575,275.031 464.410,275.295 464.287,275.672 Z"/>
    <path d="M 474.837,274.021 C 475.440,274.021 475.834,273.738 476.018,273.173 L 476.168,272.709 C 476.262,272.422 476.259,272.215 476.161,272.086 C 476.063,271.958 475.886,271.894 475.630,271.894 L 473.378,271.894 L 472.687,274.021 Z M 473.777,278.015 C 474.320,278.015 474.691,277.709 474.889,277.098 L 475.077,276.522 C 475.165,276.250 475.169,276.018 475.088,275.826 C 475.007,275.633 474.812,275.537 474.503,275.537 L 472.195,275.537 L 471.390,278.015 Z M 476.668,277.370 C 476.552,277.725 476.390,278.043 476.182,278.326 C 475.973,278.609 475.729,278.848 475.450,279.044 C 475.172,279.241 474.861,279.391 474.517,279.497 C 474.174,279.603 473.813,279.656 473.436,279.656 L 468.990,279.656 L 472.044,270.253 L 476.344,270.253 C 477.143,270.253 477.698,270.440 478.006,270.814 C 478.315,271.187 478.358,271.717 478.135,272.403 L 477.932,273.025 C 477.775,273.508 477.565,273.889 477.301,274.168 C 477.036,274.447 476.703,274.651 476.299,274.779 C 476.699,274.847 476.944,275.039 477.033,275.356 C 477.123,275.673 477.098,276.046 476.958,276.476 Z"/>
    <path d="M 482.022,276.035 C 482.361,276.035 482.587,275.865 482.697,275.526 L 482.814,275.164 C 482.925,274.824 482.810,274.655 482.471,274.655 L 480.887,274.655 C 480.547,274.655 480.322,274.824 480.212,275.164 L 479.929,276.035 Z M 482.623,279.656 L 478.922,279.656 C 478.243,279.656 477.805,279.523 477.608,279.260 C 477.411,278.996 477.405,278.581 477.589,278.015 L 478.625,274.824 C 478.809,274.259 479.085,273.844 479.454,273.580 C 479.823,273.316 480.346,273.184 481.025,273.184 L 483.288,273.184 C 483.967,273.184 484.405,273.316 484.602,273.580 C 484.799,273.844 484.806,274.259 484.623,274.824 L 484.320,275.752 C 484.137,276.318 483.861,276.733 483.493,276.997 C 483.123,277.261 482.599,277.393 481.921,277.393 L 479.488,277.393 L 479.397,277.676 C 479.286,278.015 479.400,278.185 479.739,278.185 L 483.100,278.185 Z"/>
    <path d="M 488.426,279.655 L 487.521,279.655 C 486.654,279.655 486.077,279.457 485.790,279.061 C 485.504,278.665 485.495,278.056 485.762,277.234 L 486.600,274.654 L 485.412,274.654 L 485.890,273.183 L 487.078,273.183 L 487.663,271.384 L 489.360,271.384 L 488.775,273.183 L 490.529,273.183 L 490.051,274.654 L 488.297,274.654 L 487.481,277.166 C 487.359,277.543 487.352,277.807 487.462,277.958 C 487.571,278.109 487.784,278.184 488.100,278.184 L 488.904,278.184 Z"/>
    <path d="M 493.575,279.655 L 492.670,279.655 C 491.801,279.655 491.226,279.457 490.938,279.061 C 490.652,278.665 490.644,278.056 490.911,277.234 L 491.748,274.654 L 490.560,274.654 L 491.038,273.183 L 492.226,273.183 L 492.812,271.384 L 494.507,271.384 L 493.923,273.183 L 495.678,273.183 L 495.200,274.654 L 493.445,274.654 L 492.630,277.166 C 492.507,277.543 492.500,277.807 492.610,277.958 C 492.719,278.109 492.933,278.184 493.248,278.184 L 494.053,278.184 Z"/>
    <path d="M 499.389,276.035 C 499.729,276.035 499.954,275.865 500.064,275.526 L 500.181,275.164 C 500.292,274.824 500.177,274.655 499.838,274.655 L 498.254,274.655 C 497.914,274.655 497.690,274.824 497.579,275.164 L 497.296,276.035 Z M 499.989,279.656 L 496.289,279.656 C 495.610,279.656 495.173,279.523 494.975,279.260 C 494.778,278.996 494.772,278.581 494.956,278.015 L 495.992,274.824 C 496.176,274.259 496.452,273.844 496.821,273.580 C 497.190,273.316 497.713,273.184 498.392,273.184 L 500.655,273.184 C 501.334,273.184 501.772,273.316 501.969,273.580 C 502.166,273.844 502.173,274.259 501.989,274.824 L 501.687,275.752 C 501.504,276.318 501.227,276.733 500.859,276.997 C 500.490,277.261 499.966,277.393 499.287,277.393 L 496.855,277.393 L 496.763,277.676 C 496.653,278.015 496.767,278.185 497.106,278.185 L 500.467,278.185 Z"/>
    <path d="M 503.191,279.655 L 501.494,279.655 L 502.810,275.605 C 503.077,274.783 503.483,274.173 504.026,273.777 C 504.569,273.381 505.275,273.183 506.142,273.183 L 507.047,273.183 L 506.570,274.654 L 505.766,274.654 C 505.449,274.654 505.187,274.730 504.980,274.880 C 504.772,275.031 504.607,275.295 504.485,275.672 Z"/>
    <path d="M 515.297,279.655 L 509.188,279.655 L 512.242,270.253 L 514.109,270.253 L 511.588,278.014 L 515.830,278.014 Z"/>
    <path d="M 520.906,271.724 C 520.860,271.867 520.809,271.960 520.754,272.001 C 520.699,272.043 520.600,272.063 520.456,272.063 L 519.325,272.063 C 519.182,272.063 519.096,272.043 519.068,272.001 C 519.040,271.960 519.049,271.867 519.096,271.724 L 519.464,270.592 C 519.510,270.449 519.561,270.357 519.616,270.315 C 519.670,270.274 519.770,270.253 519.913,270.253 L 521.045,270.253 C 521.188,270.253 521.273,270.274 521.301,270.315 C 521.330,270.357 521.320,270.449 521.274,270.592 Z M 518.272,279.655 L 516.575,279.655 L 518.678,273.183 L 520.375,273.183 Z"/>
    <path d="M 522.380,279.655 L 520.683,279.655 L 522.307,274.654 L 520.893,274.654 L 521.371,273.183 L 522.786,273.183 L 522.951,272.674 C 523.218,271.852 523.623,271.243 524.167,270.847 C 524.710,270.451 525.416,270.253 526.283,270.253 L 527.302,270.253 L 526.824,271.724 L 525.907,271.724 C 525.591,271.724 525.328,271.799 525.121,271.950 C 524.913,272.101 524.749,272.365 524.626,272.742 L 524.483,273.183 L 526.350,273.183 L 525.872,274.654 L 524.005,274.654 Z"/>
    <path d="M 530.062,276.035 C 530.401,276.035 530.626,275.865 530.736,275.526 L 530.854,275.164 C 530.964,274.824 530.850,274.655 530.511,274.655 L 528.927,274.655 C 528.587,274.655 528.362,274.824 528.252,275.164 L 527.969,276.035 Z M 530.662,279.656 L 526.962,279.656 C 526.283,279.656 525.846,279.523 525.648,279.260 C 525.451,278.996 525.445,278.581 525.628,278.015 L 526.665,274.824 C 526.849,274.259 527.125,273.844 527.494,273.580 C 527.863,273.316 528.386,273.184 529.065,273.184 L 531.328,273.184 C 532.007,273.184 532.445,273.316 532.642,273.580 C 532.839,273.844 532.845,274.259 532.662,274.824 L 532.360,275.752 C 532.176,276.318 531.900,276.733 531.532,276.997 C 531.163,277.261 530.639,277.393 529.960,277.393 L 527.528,277.393 L 527.436,277.676 C 527.326,278.015 527.440,278.185 527.779,278.185 L 531.140,278.185 Z"/>
  </g>
</svg>